<?xml version="1.0" encoding="UTF-8"?>
<svg id="Layer_2" data-name="Layer 2" xmlns="http://www.w3.org/2000/svg" viewBox="0 0 165.16 129.89">
  <defs>
    <style>
      .cls-1 {
        fill: none;
      }

      .cls-2 {
        fill: #b897c7;
      }

      .cls-3 {
        fill: #a93d97;
      }
    </style>
  </defs>
  <g id="Layer_1-2" data-name="Layer 1">
    <path class="cls-1" d="m59.69,89.38l.16-27.05-.4,26.95c.08.03.17.06.25.1Z"/>
    <ellipse class="cls-1" cx="44.04" cy="24.11" rx="3.95" ry="4.03"/>
    <path class="cls-2" d="m46.04,49.48h0c12.54,2.42,25.83-5.93,33.1-46.23H23.46c-4.18,0-7.57,3.46-7.57,7.73v21.32c5.83,3.51,16.59,10.62,19.38,12.4,3.34,2.13,6.97,3.74,10.77,4.79Zm-2-29.41c2.17,0,3.95,1.81,3.95,4.03s-1.78,4.03-3.95,4.03-3.95-1.81-3.95-4.03,1.78-4.03,3.95-4.03Z"/>
    <path class="cls-2" d="m56.64,89c1.02-.17,2.19.06,3.04.39l.16-27.51c-19.76-1.85-24.39-7.5-38.06-19.41-2.32-2.02-4.26-3.74-5.89-5.21v82.99c0,4.27,4.06,7.73,9.07,7.73h21.63s-1.4-37.1,10.05-38.98Z"/>
    <path class="cls-3" d="m133.05,3.25h-41.53c-1.68,9.89-5.55,43.78-31.68,58.63l-.16,27.51c8.51,3.8,7.42,30.79,7.3,38.59l23.91-.05c.29-8.44-2.05-38.36,9.14-38.93,12.54-.64,10.02,18.01,10.23,38.98h22.78c4.18,0,7.57-3.46,7.57-7.73V10.98c0-4.27-3.39-7.73-7.57-7.73Z"/>
  </g>
</svg>