<?xml version="1.0" encoding="UTF-8"?>
<svg id="Layer_2" data-name="Layer 2" xmlns="http://www.w3.org/2000/svg" viewBox="0 0 289.54 45.69">
  <defs>
    <style>
      .cls-1 {
        fill: none;
      }

      .cls-2 {
        fill: #b897c7;
      }

      .cls-3 {
        fill: #a93d97;
      }
    </style>
  </defs>
  <g id="Layer_1-2" data-name="Layer 1">
    <g>
      <g>
        <path class="cls-2" d="m50.95,36.11v-.11c0-6.38,4.84-9.69,12.08-9.69,2.85,0,5.64.57,7.41,1.2v-.51c0-3.19-1.99-5.02-6.16-5.02-3.25,0-5.76.63-8.49,1.71l-2.22-7.64c3.48-1.42,7.18-2.39,12.48-2.39s9.29,1.31,11.74,3.76c2.34,2.28,3.31,5.47,3.31,9.8v17.72h-10.71v-3.19c-2.11,2.34-5.02,3.88-9.06,3.88-5.87,0-10.37-3.36-10.37-9.52Zm19.61-2.34v-1.42c-1.08-.46-2.62-.8-4.22-.8-3.13,0-4.96,1.54-4.96,3.82v.11c0,2.11,1.6,3.36,3.82,3.36,3.13,0,5.36-1.99,5.36-5.07Z"/>
        <path class="cls-2" d="m86.63,14.11h10.83v4.22c1.99-2.56,4.84-4.9,9.18-4.9,4.1,0,7.24,1.82,8.89,5.02,2.68-3.08,5.81-5.02,10.32-5.02,6.55,0,10.54,4.1,10.54,11.28v20.23h-10.83v-16.76c0-3.36-1.65-5.13-4.22-5.13s-4.45,1.77-4.45,5.13v16.76h-10.83v-16.76c0-3.36-1.65-5.13-4.22-5.13s-4.39,1.77-4.39,5.13v16.76h-10.83V14.11Z"/>
        <path class="cls-2" d="m141.98,14.11h10.83v4.22c1.99-2.56,4.84-4.9,9.18-4.9,4.1,0,7.24,1.82,8.89,5.02,2.68-3.08,5.81-5.02,10.32-5.02,6.55,0,10.54,4.1,10.54,11.28v20.23h-10.83v-16.76c0-3.36-1.65-5.13-4.22-5.13s-4.45,1.77-4.45,5.13v16.76h-10.83v-16.76c0-3.36-1.65-5.13-4.22-5.13s-4.39,1.77-4.39,5.13v16.76h-10.83V14.11Z"/>
        <path class="cls-2" d="m196.07,29.67v-.11c0-8.78,7.18-16.13,17.1-16.13s16.98,7.24,16.98,16.02v.11c0,8.78-7.18,16.13-17.1,16.13s-16.98-7.24-16.98-16.02Zm23.54,0v-.11c0-3.76-2.74-6.95-6.55-6.95s-6.44,3.13-6.44,6.84v.11c0,3.76,2.74,6.95,6.55,6.95s6.44-3.13,6.44-6.84Z"/>
        <path class="cls-2" d="m236.31,35.37v-12.54h-3.65v-8.72h3.65v-7.81h10.83v7.81h7.18v8.72h-7.18v10.43c0,2.17.97,3.08,2.96,3.08,1.42,0,2.79-.4,4.1-1.03v8.49c-1.94,1.08-4.5,1.77-7.52,1.77-6.5,0-10.37-2.85-10.37-10.2Z"/>
        <path class="cls-2" d="m258.99,3.34h10.83v14.99c1.99-2.56,4.84-4.9,9.23-4.9,6.55,0,10.49,4.33,10.49,11.34v20.18h-10.83v-16.7c0-3.36-1.77-5.19-4.33-5.19s-4.56,1.82-4.56,5.19v16.7h-10.83V3.34Z"/>
      </g>
      <g>
        <path class="cls-1" d="m16.11,31.04l.06-9.75-.15,9.71s.06.02.09.04Z"/>
        <circle class="cls-1" cx="10.36" cy="7.52" r="1.45"/>
        <path class="cls-2" d="m11.09,16.66h0c4.61.87,9.5-2.14,12.18-16.66H2.78C1.25,0,0,1.25,0,2.78v7.68c2.14,1.26,6.1,3.83,7.13,4.47,1.23.77,2.56,1.35,3.96,1.73Zm-.74-10.6c.8,0,1.45.65,1.45,1.45s-.65,1.45-1.45,1.45-1.45-.65-1.45-1.45.65-1.45,1.45-1.45Z"/>
        <path class="cls-2" d="m14.99,30.9c.38-.06.81.02,1.12.14l.06-9.91c-7.27-.67-8.97-2.7-14-6.99-.85-.73-1.57-1.35-2.17-1.88v29.9c0,1.54,1.49,2.78,3.34,2.78h7.96s-.52-13.37,3.7-14.05Z"/>
        <path class="cls-3" d="m43.11,0h-15.28c-.62,3.56-2.04,15.78-11.66,21.13l-.06,9.91c3.13,1.37,2.73,11.09,2.69,13.9l8.8-.02c.11-3.04-.75-13.82,3.36-14.03,4.61-.23,3.69,6.49,3.77,14.05h8.38c1.54,0,2.78-1.25,2.78-2.78V2.78c0-1.54-1.25-2.78-2.78-2.78Z"/>
      </g>
    </g>
  </g>
</svg>